PathFileType	4	(X/Y/Z)	/Users/itak/Documents/Research/Walk-IL/dataset/trc/00072_00006.trc
DataRate	CameraRate	NumFrames	NumMarkers	Units	OrigDataRate	OrigDataStartFrame	OrigNumFrames
100.000000	100.000000	4	53	mm	100.000000	458	734
Frame#	Time	RPSI			LPSI			L3			STRN			T10			C7			CLAV			RBAK			LBAK			LSHO			LUPA			LAEL			LAOL			LWTS			LWPS			LFRA			LIFD			LHPS			LHTS			RSHO			RUPA			RAEL			RAOL			RWTS			RWPS			RFRA			RIFD			RHTS			RHPS			RBHD			LFHD			RFHD			LBHD			LHIP			RHIP			RASI			LASI			LKNE			LTHI			LANK			LTIP			LTOE			LMT1			LMT5			LHEE			RKNE			RTHI			RANK			RTIP			RTOE			RMT1			RMT5			RHEE			
		X1	Y1	Z1	X2	Y2	Z2	X3	Y3	Z3	X4	Y4	Z4	X5	Y5	Z5	X6	Y6	Z6	X7	Y7	Z7	X8	Y8	Z8	X9	Y9	Z9	X10	Y10	Z10	X11	Y11	Z11	X12	Y12	Z12	X13	Y13	Z13	X14	Y14	Z14	X15	Y15	Z15	X16	Y16	Z16	X17	Y17	Z17	X18	Y18	Z18	X19	Y19	Z19	X20	Y20	Z20	X21	Y21	Z21	X22	Y22	Z22	X23	Y23	Z23	X24	Y24	Z24	X25	Y25	Z25	X26	Y26	Z26	X27	Y27	Z27	X28	Y28	Z28	X29	Y29	Z29	X30	Y30	Z30	X31	Y31	Z31	X32	Y32	Z32	X33	Y33	Z33	X34	Y34	Z34	X35	Y35	Z35	X36	Y36	Z36	X37	Y37	Z37	X38	Y38	Z38	X39	Y39	Z39	X40	Y40	Z40	X41	Y41	Z41	X42	Y42	Z42	X43	Y43	Z43	X44	Y44	Z44	X45	Y45	Z45	X46	Y46	Z46	X47	Y47	Z47	X48	Y48	Z48	X49	Y49	Z49	X50	Y50	Z50	X51	Y51	Z51	X52	Y52	Z52	X53	Y53	Z53	

459	4.58	404.8393249511719	994.2195434570312	-254.0380249023438	532.9861450195312	984.1121215820312	-373.1893310546875	463.98095703125	1051.651611328125	-311.2136840820312	637.6166381835938	1244.449340820312	-119.0266571044922	449.2491149902344	1184.355590820312	-307.9771423339844	481.1146545410156	1448.859497070312	-251.4362335205078	614.84375	1359.408813476562	-135.5543670654297	388.4085998535156	1308.246704101562	-247.8948822021484	529.4755859375	1417.603393554688	-342.1622009277344	652.11865234375	1426.051025390625	-331.7191772460938	683.283203125	1312.4228515625	-420.8623046875	705.8492431640625	1101.17724609375	-459.82568359375	604.252685546875	1082.509765625	-427.6507263183594	746.477783203125	861.9536743164062	-355.9027404785156	734.5087280273438	849.3334350585938	-438.47265625	728.52001953125	990.7652587890625	-456.4384155273438	744.0725708007812	677.41748046875	-332.8446044921875	761.060546875	770.390380859375	-415.1713562011719	769.521728515625	780.545654296875	-345.31591796875	410.3751831054688	1404.021118164062	-83.82427215576172	360.6109008789062	1334.289672851562	-48.99370956420898	309.0107727050781	1072.49365234375	-37.12432861328125	386.9615173339844	1048.484130859375	-93.60008239746094	485.2256164550781	857.7944946289062	53.60741424560547	406.5645141601562	821.822998046875	46.59103393554688	322.3751220703125	990.0179443359375	-13.94480228424072	547.3804321289062	682.0269775390625	46.07236099243164	527.736083984375	764.0313110351562	77.18281555175781	452.9741821289062	741.9877319335938	77.75770568847656	594.7109985351562	1641.003662109375	-242.7557220458984	534.8279418945312	1638.540283203125	-35.52538299560547	652.939208984375	1659.728515625	-75.06050109863281	469.2358093261719	1611.163940429688	-192.0714416503906	675.5643920898438	930.9418334960938	-350.8494262695312	387.0446472167969	922.355224609375	-156.8192596435547	482.2142028808594	935.6358032226562	-72.33169555664062	698.375244140625	943.169921875	-230.3325805664062	787.5126342773438	518.7577514648438	-136.8659820556641	776.368896484375	633.08154296875	-233.0518341064453	903.4612426757812	54.42475891113281	-86.20352172851562	855.4454956054688	283.8292541503906	-125.1487350463867	931.0064086914062	139.5758819580078	94.76576995849609	871.5180053710938	116.0494766235352	65.52424621582031	958.8403930664062	85.48197174072266	2.237152099609375	819.3938598632812	30.1239013671875	-116.3554306030273	472.6211853027344	480.9827270507812	-206.6244506835938	444.7519226074219	739.3201904296875	-121.5663986206055	395.9197998046875	42.61402130126953	-413.1703491210938	455.4676513671875	360.8790283203125	-254.0214691162109	589.9578247070312	31.59435272216797	-312.0479125976562	564.8143920898438	41.77956390380859	-379.1662292480469	483.1422424316406	39.39354705810547	-324.6379699707031	394.312255859375	56.85222244262695	-484.2342529296875	
460	4.59	411.8712158203125	992.9400634765625	-249.3019409179688	542.226318359375	982.6676635742188	-366.4397888183594	472.5187072753906	1050.261352539062	-305.6497802734375	643.3858642578125	1242.934204101562	-111.49609375	457.35986328125	1183.000610351562	-302.6151733398438	488.5948791503906	1447.494873046875	-245.7786560058594	621.0219116210938	1357.911010742188	-128.3765411376953	395.685546875	1307.028076171875	-243.2099914550781	538.0469970703125	1415.9169921875	-336.0354309082031	660.4480590820312	1424.445068359375	-324.1636047363281	692.2861938476562	1310.859985351562	-413.1839294433594	715.2322998046875	1099.794311523438	-452.5131530761719	613.3567504882812	1080.98095703125	-421.1011352539062	755.1111450195312	860.5296630859375	-348.19677734375	743.7860717773438	847.933349609375	-430.8526611328125	737.9298095703125	989.3997802734375	-448.9472351074219	752.605224609375	676.1460571289062	-325.1135559082031	770.1652221679688	768.9903564453125	-407.2996520996094	778.0015258789062	779.0233154296875	-337.2781982421875	416.1016540527344	1402.767333984375	-78.842529296875	365.8017883300781	1333.08984375	-44.55898666381836	313.777099609375	1071.3564453125	-32.76045608520508	391.880615234375	1047.193237304688	-88.79988861083984	489.0736083984375	856.5134887695312	59.10757064819336	410.4497375488281	820.6570434570312	51.60166931152344	326.8381958007812	988.8790283203125	-9.503307342529297	551.0357055664062	680.6976318359375	52.01290130615234	531.3606567382812	762.7369384765625	83.0352783203125	456.5843505859375	740.7810668945312	83.12542724609375	602.2902221679688	1639.675903320312	-235.7165069580078	539.7689208984375	1637.053588867188	-29.2863826751709	658.365966796875	1658.412109375	-67.33409118652344	476.2958068847656	1609.675170898438	-186.632568359375	684.2235717773438	929.2078247070312	-342.2162170410156	393.02392578125	921.3806762695312	-152.1527557373047	486.9903259277344	934.4443969726562	-66.20021057128906	705.3998413085938	941.4843139648438	-221.2644805908203	793.0573120117188	517.0765380859375	-128.5953063964844	782.74560546875	630.401123046875	-225.3435668945312	909.2749633789062	54.42390441894531	-68.36748504638672	860.929931640625	283.0931396484375	-112.2342300415039	935.9911499023438	142.5853118896484	111.2184753417969	876.7014770507812	118.4110488891602	82.24239349365234	964.202880859375	86.96095275878906	19.73476791381836	825.305419921875	29.45071601867676	-98.44755554199219	476.8102111816406	480.1096496582031	-202.0094299316406	449.3689575195312	738.3107299804688	-116.4398574829102	396.37158203125	44.10201263427734	-412.9482116699219	458.8074951171875	360.2796936035156	-250.3970031738281	590.0692749023438	31.51093292236328	-312.0149536132812	565.005126953125	41.87985610961914	-378.9494323730469	483.3969116210938	39.70134353637695	-324.4573059082031	394.7249755859375	59.22031021118164	-483.8539123535156	
461	4.600000000000001	419.101806640625	991.8076171875	-244.2783355712891	551.394287109375	981.4214477539062	-359.510986328125	481.0148620605469	1048.941528320312	-299.8152770996094	649.250244140625	1241.591796875	-103.8372116088867	465.5492553710938	1181.712158203125	-297.0553588867188	496.158447265625	1446.227661132812	-240.0748596191406	627.2682495117188	1356.57373046875	-121.1089096069336	403.0880737304688	1305.902709960938	-238.4400177001953	546.6890869140625	1414.303100585938	-329.7894897460938	668.8470458984375	1422.975952148438	-316.5072937011719	701.3656005859375	1309.391235351562	-405.3622741699219	724.7406005859375	1098.511108398438	-444.9827575683594	622.5986938476562	1079.548950195312	-414.3544006347656	763.83447265625	859.1397094726562	-340.3344116210938	753.1655883789062	846.623046875	-423.0761413574219	747.4716186523438	988.1425170898438	-441.272216796875	761.1941528320312	674.9122314453125	-317.2693786621094	779.349853515625	767.66015625	-399.2804260253906	786.5927734375	777.6201782226562	-329.1307678222656	421.8745727539062	1401.654296875	-73.86211395263672	371.0296325683594	1332.043090820312	-40.12301635742188	318.5968933105469	1070.383178710938	-28.42321014404297	396.8913269042969	1046.073974609375	-83.97188568115234	492.8187255859375	855.2985229492188	64.61997222900391	414.1764831542969	819.6183471679688	56.6151123046875	331.2919311523438	987.9149780273438	-5.085163593292236	554.4515380859375	679.38330078125	58.01331329345703	534.79833984375	761.4823608398438	88.91677093505859	459.9668273925781	739.669677734375	88.51848602294922	609.9489135742188	1638.505004882812	-228.5387268066406	544.6769409179688	1635.682250976562	-23.00139808654785	663.736083984375	1657.182983398438	-59.45594787597656	483.4189147949219	1608.348876953125	-181.1671142578125	692.7819213867188	927.6248779296875	-333.4138488769531	399.0965576171875	920.5191040039062	-147.2667388916016	491.8197937011719	933.3276977539062	-59.88966369628906	712.3734741210938	939.9097290039062	-212.1084289550781	798.6964111328125	515.5745239257812	-119.7626342773438	788.97998046875	628.1443481445312	-216.9112396240234	913.505126953125	53.92022705078125	-53.08407974243164	865.6495971679688	282.0095825195312	-100.1647415161133	940.0428466796875	143.6911163330078	125.561897277832	880.8206787109375	119.1982955932617	96.87982940673828	968.2582397460938	87.15207672119141	34.70844268798828	829.4948120117188	28.67113304138184	-83.01824188232422	481.0557861328125	479.3164367675781	-197.2403411865234	454.0250244140625	737.3831176757812	-111.1662521362305	396.7413940429688	45.77915573120117	-412.5649719238281	462.1573181152344	359.773193359375	-246.6021881103516	590.1392211914062	31.43703079223633	-312.0243530273438	565.1497802734375	42.05833053588867	-378.6976623535156	483.6250915527344	40.01531982421875	-324.1831970214844	395.0500793457031	61.82172012329102	-483.2942199707031	
462	4.61	426.5036010742188	990.8442993164062	-238.9162292480469	560.460205078125	980.3795776367188	-352.3764343261719	489.471923828125	1047.683349609375	-293.6669616699219	655.22265625	1240.4453125	-96.04706573486328	473.8129577636719	1180.4970703125	-291.2810974121094	503.8124084472656	1445.07275390625	-234.3228912353516	633.58251953125	1355.419555664062	-113.7517395019531	410.6231689453125	1304.876708984375	-233.5774383544922	555.3939208984375	1412.801879882812	-323.4053955078125	677.3270874023438	1421.666625976562	-308.7535705566406	710.5344848632812	1308.035278320312	-397.3859252929688	734.3709106445312	1097.34228515625	-437.2034301757812	631.9922485351562	1078.240112304688	-407.3957824707031	772.637939453125	857.811279296875	-332.2935485839844	762.6531982421875	845.4241333007812	-415.1280822753906	757.1472778320312	987.014404296875	-433.3843994140625	769.8226318359375	673.7284545898438	-309.3200378417969	788.6203002929688	766.4326171875	-391.11376953125	795.2765502929688	776.33544921875	-320.8638000488281	427.6936950683594	1400.705810546875	-68.88761901855469	376.2987670898438	1331.173095703125	-35.69229507446289	323.4450073242188	1069.607055664062	-24.15240669250488	401.9960327148438	1045.158569335938	-79.12806701660156	496.4437255859375	854.1739501953125	70.14035797119141	417.7288513183594	818.723388671875	61.60097503662109	335.7261047363281	987.153076171875	-0.7245613932609558	557.615478515625	678.1103515625	64.06824493408203	538.0269775390625	760.2932739257812	94.82108306884766	463.0931091308594	738.6729125976562	93.90914916992188	617.6897583007812	1637.508666992188	-221.2208557128906	549.5422973632812	1634.442749023438	-16.67594718933105	669.0459594726562	1656.053466796875	-51.41674423217773	490.611328125	1607.204467773438	-175.6804809570312	701.2112426757812	926.2073974609375	-324.4569396972656	405.2712097167969	919.7843627929688	-142.1031646728516	496.7372741699219	932.2972412109375	-53.3814582824707	719.3241577148438	938.4744262695312	-202.8755798339844	804.29248046875	514.245361328125	-110.3257064819336	795.0770874023438	626.3429565429688	-207.7035827636719	916.3847045898438	52.88284683227539	-40.30981063842773	869.6736450195312	280.572265625	-88.88072967529297	943.1348266601562	142.8260498046875	137.9655151367188	883.9029541015625	118.3073272705078	109.5139999389648	971.1312866210938	86.03900909423828	47.31503295898438	832.2472534179688	27.73006248474121	-70.13240814208984	485.3655395507812	478.6111145019531	-192.3085479736328	458.7380065917969	736.5399780273438	-105.7150115966797	397.0395812988281	47.65887451171875	-412.0253295898438	465.5171508789062	359.3717041015625	-242.6330718994141	590.1717529296875	31.37761306762695	-312.0699157714844	565.25341796875	42.31658935546875	-378.4093627929688	483.8270263671875	40.32804870605469	-323.8129272460938	395.3197021484375	64.67676544189453	-482.5547790527344	
